<?xml version="1.0" encoding="UTF-8" standalone="no"?>
<svg
   version="1.1"
   id="Layer_1"
   x="0px"
   y="0px"
   viewBox="0 0 1854.529 1621.792"
   enable-background="new 0 0 1854.529 1621.792"
   xml:space="preserve"
   sodipodi:docname="alliance.svg"
   inkscape:version="1.3.2 (091e20ef0f, 2023-11-25, custom)"
   xmlns:inkscape="http://www.inkscape.org/namespaces/inkscape"
   xmlns:sodipodi="http://sodipodi.sourceforge.net/DTD/sodipodi-0.dtd"
   xmlns="http://www.w3.org/2000/svg"
   xmlns:svg="http://www.w3.org/2000/svg"><defs
   id="defs341">
	
</defs><sodipodi:namedview
   id="namedview341"
   pagecolor="#ffffff"
   bordercolor="#666666"
   borderopacity="1.0"
   inkscape:showpageshadow="2"
   inkscape:pageopacity="0.0"
   inkscape:pagecheckerboard="0"
   inkscape:deskcolor="#d1d1d1"
   inkscape:zoom="1.4858995"
   inkscape:cx="941.18075"
   inkscape:cy="753.75219"
   inkscape:window-width="1918"
   inkscape:window-height="1058"
   inkscape:window-x="0"
   inkscape:window-y="20"
   inkscape:window-maximized="1"
   inkscape:current-layer="g341" />
<g
   id="Red_Heart_1_"
   transform="translate(-691.94444,-547.84688)">
		<g
   id="g341">
			
			
			
			
			
			
			
			
			
			
			
			
			
			
			
			
			
			
			
			
			<g
   id="g42"
   transform="translate(440.45923,881.136)"
   style="fill:#03020b;fill-opacity:1;stroke-width:3.29999943;stroke-dasharray:none"
   inkscape:export-filename="alliance.png"
   inkscape:export-xdpi="41.410011"
   inkscape:export-ydpi="41.410011">
				<g
   id="g41"
   style="fill:#03020b;fill-opacity:1;stroke-width:3.29999943;stroke-dasharray:none">
					<path
   fill="#b94d77"
   d="m 1236.4111,339.30043 v 0.007 l -3.3933,3.42735 c -6.2423,-4.97091 -16.2773,-5.27533 -24.2834,2.73078 -6.0954,-6.8368 -16.7481,-7.03914 -24.0702,-1.05113 l -2.2778,-2.27774 0.021,-0.0215 -21.0386,-21.03864 -56.9094,56.90944 21.0386,21.03685 8.5397,-8.53973 25.2826,25.28254 c -7.8647,6.63982 -2.4246,18.78955 7.1483,16.77325 -1.4325,6.42673 4.3209,12.14973 10.7226,10.72256 -1.4325,6.42852 4.3227,12.14973 10.7226,10.72256 -2.0074,9.53535 10.2641,15.17955 16.8914,7.0087 v 0.002 c 6.7741,4.49817 16.3686,-1.52924 15.3926,-10.07971 6.6255,0.70015 12.2017,-4.89034 11.5033,-11.5033 6.6255,0.70015 12.2017,-4.89033 11.5033,-11.5033 8.5523,0.97592 14.5314,-8.59703 10.1138,-15.34608 l 28.1744,-28.17627 7.9614,7.96134 22.5696,-22.56967 -53.0505,-53.05053 z m -126.6849,38.5013 51.4658,-51.46579 15.9639,15.96387 -51.4658,51.46579 z m 51.165,49.5999 c -2.2598,-2.25983 -2.1273,-6.05785 0.2972,-8.48421 2.4246,-2.42637 6.2226,-2.55888 8.4843,-0.29726 2.2598,2.25984 2.1273,6.05786 -0.2973,8.48422 -2.4264,2.42458 -6.2244,2.55709 -8.4842,0.29725 z m 10.7225,10.72257 c -2.2598,-2.25984 -2.1273,-6.05786 0.2973,-8.48422 2.4246,-2.42458 6.2226,-2.55888 8.4824,-0.29725 2.2599,2.25983 2.1273,6.05785 -0.2972,8.48421 -2.4228,2.42458 -6.2226,2.55888 -8.4825,0.29726 z m 10.7226,10.72256 c -2.2598,-2.25984 -2.1273,-6.05786 0.2973,-8.48422 2.4245,-2.42458 6.2226,-2.55888 8.4824,-0.29725 2.2598,2.26162 2.1273,6.05785 -0.2973,8.48242 -2.4245,2.42458 -6.2226,2.56067 -8.4824,0.29905 z m 19.2068,10.42531 c -2.4246,2.42457 -6.2226,2.55887 -8.4842,0.29725 -2.2617,-2.26162 -2.1274,-6.05786 0.2972,-8.48422 2.4246,-2.42457 6.2226,-2.55887 8.4842,-0.29725 2.2599,2.26162 2.1274,6.05964 -0.2972,8.48422 z m 47.6266,-36.90402 c -2.6574,2.65736 -6.6667,2.33325 -8.4914,0.28829 v 0 c -2.2455,-2.2455 -18.3473,-18.34725 -21.0315,-21.03147 l -2.7218,2.72182 c 2.4335,2.43353 18.8236,18.82358 21.0404,21.04043 2.2598,2.25984 2.1273,6.05786 -0.2972,8.48243 -2.4246,2.42458 -6.2226,2.55888 -8.4843,0.29725 v 0 c 0,-0.002 -21.0386,-21.03864 -21.0404,-21.04043 l -2.7218,2.72183 c 0.607,0.60704 14.5313,14.52954 21.0315,21.03148 v 0 c 0,0.002 0,0.007 0,0.009 v 0 c 2.2598,2.25983 2.1273,6.05785 -0.2973,8.48243 -2.4246,2.42457 -6.2226,2.55887 -8.4842,0.29725 -0.018,-0.0143 -21.0261,-21.0279 -21.0404,-21.04222 l -2.7219,2.72182 c 2.5571,2.55709 19.445,19.44494 21.3538,21.3538 l -0.018,0.0161 c 1.9411,2.2849 1.7173,5.84118 -0.5945,8.15294 -2.2562,2.25625 -5.7015,2.52664 -7.9918,0.7306 2.3279,-6.69713 -3.3664,-13.43902 -10.4145,-11.95455 1.4325,-6.42852 -4.3227,-12.14973 -10.7226,-10.72256 1.4326,-6.43031 -4.3245,-12.14973 -10.7225,-10.72256 1.4325,-6.80636 -4.8617,-12.75677 -11.9994,-10.39845 l -26.0435,-26.04358 v 0 l 42.9045,-42.90457 4.7417,4.74171 1.3323,-1.33227 c 5.9701,-5.97011 15.33,-5.81969 20.2722,-0.0806 l -20.2149,20.21493 c -3.7837,3.7837 -3.9932,9.73053 -0.4656,13.25816 3.7587,3.71386 9.727,3.10861 13.2582,-0.46557 l 9.0912,-9.09126 36.5746,36.57274 v 0 l 5.1965,5.19654 v 0 c 2.0647,1.88558 2.3512,5.85909 -0.2883,8.49855 z m 29.7932,-40.51582 -28.042,28.04197 -36.3005,-36.30235 v 0 c 7.1054,2.46039 15.5198,-0.0197 20.5927,-6.63087 0.6519,-0.7879 0.5247,-1.959 -0.2793,-2.5911 -0.8542,-0.57839 -2.0127,-0.37426 -2.6162,0.46199 -5.8018,7.57276 -16.433,7.63365 -21.3323,1.95542 -0.7127,-0.81118 -1.4988,-0.95085 -2.2258,-0.62137 -0.5193,0.21846 0.4978,-0.70015 -12.6959,12.49354 -3.7568,3.75505 -9.7466,1.22482 -9.5156,-3.66193 0.063,-1.53103 0.7055,-2.98326 1.7978,-4.05767 l 23.5904,-23.59035 c 5.6281,-5.62809 14.4758,-5.93609 19.7225,-0.6912 0.8255,0.76641 2.0718,0.57839 2.6358,-0.10028 v 0 l 4.6665,-4.71306 z m 10.6814,5.23952 -47.9758,-47.97576 42.5518,42.55181 -42.5518,-42.55181 17.126,-17.12423 47.9758,47.97576 z"
   id="path40"
   style="fill:#f0f0f0;fill-opacity:1;stroke-width:5.909;stroke-dasharray:none"
   inkscape:export-filename="alliance.png"
   inkscape:export-xdpi="23.125381"
   inkscape:export-ydpi="23.125381" />
				</g>
			</g>
			
			
			
			
			
			
			
			
			
			
			
			
			
			
			
			
			
			
			
			
			
			
			
			
			
			
			
			
			
			
			
			
			
			
			
			
			
			
			
			
			
			
			
			
			
			
			
			
			
			
			
			
			
			
			
			
			
			
			
			
			
			
			
			
			
			
			
			
			
			
			
			
			
			
			
			
			
			
			
			
			
			
			
			
			
			
			
			
			
			
			
			
			
			
			
			
			
			
			
			
			
			
			
			
			
			
			
			
			
			
			
			
			
			
			
			
			
			
			
			
			
			
			
			
			
			
			
			
			
			
			
			
			
			
			
			
			
			
			
			
			
			
			
			
			
			
			
			
			
		</g>
	</g>
<g
   id="Handshake">
</g>
</svg>
